# xmcd
#
# Track frame offsets:
#	150
#	8448
#	21066
#	30030
#	39516
#	52800
#	65733
#	77100
#	87333
#	93669
#	103308
#	112110
#	122199
#	131001
#	137112
#	148668
#	160224
#	169602
#	177639
#	188817
#	196701
#	207141
#	215421
#	225447
#	235779
#
# Disc length: 3230 seconds
#
# Revision: 1
# Processed by: cddbd v1.5.2PL0 Copyright (c) Steve Scherf et al.
# Submitted via: audiograbber 1.83.01
#
DISCID=520c9c19
DTITLE=Assorted Artists - 25 Golden Fiddle treasures
DYEAR=2002
DGENRE=Country
TTITLE0=Graham Townsend - Liberty Two Step
TTITLE1=Graham Townsend - Ste. Anna's Reel
TTITLE2=Susanna Tellier - Forky Deer
TTITLE3=Bill Sawyer - Home Sweet Home
TTITLE4=Smiley Bates - Fiddler's Dream
TTITLE5=Smiley Bates - Soldier's Joy
TTITLE6=Bunty Petrie - Crooked Stove Pipe
TTITLE7=John Wilmot - Dublin Reels
TTITLE8=Gaeton Poirier - The Girl I Left Behind
TTITLE9=Chuck Joyce - Maple Leaf Two Step
TTITLE10=Bunty Petrie - My Love is but a Lassie
TTITLE11=Bunty Petrie - Old Joe Clark
TTITLE12=Johnny Givens - Flop-Eared Mule
TTITLE13=Graham Townsend - Clear the Track
TTITLE14=Eleanor Townsend - Wildwood Watlz
TTITLE15=Eleanor Townsend - Forrester's Waltz
TTITLE16=Bill Sawyer - Cock O' the North
TTITLE17=Bill Sawyer - Ripping Water Jig
TTITLE18=Bunty Petrie - Back Up and Push
TTITLE19=Carl Elliott - Brenda's Reel
TTITLE20=Bill Sawyer - Flowers of Edinburgh
TTITLE21=Gaetan Poirier - Mocking Bird Hill
TTITLE22=Chuck Joyce - White River Stomp
TTITLE23=Smiley Bates - Boil Them Cabbage Down
TTITLE24=Johnny Givens - Rockin' Chair Jig
EXTD=Condor - The Sound of Canadian Country\n\nHeritage Music\n41 Antrim Cres.,
EXTD=#311\nScarborough, ON\nM1P 4T1\nCanada
EXTT0=
EXTT1=
EXTT2=
EXTT3=
EXTT4=
EXTT5=
EXTT6=
EXTT7=
EXTT8=
EXTT9=
EXTT10=
EXTT11=
EXTT12=
EXTT13=
EXTT14=
EXTT15=
EXTT16=
EXTT17=
EXTT18=
EXTT19=
EXTT20=
EXTT21=
EXTT22=
EXTT23=
EXTT24=
PLAYORDER=
